<svg version="1.1" id="Layer_1" xmlns="http://www.w3.org/2000/svg" x="0" y="0" viewBox="0 0 48 48" style="enable-background:new 0 0 48 48" xml:space="preserve"><g id="B" transform="translate(2432.3 329.575)"><path d="M-2398.4-311.8c.2 0 .8-2.2.8-2.1l-.2-1.2c-.1-.4-1.1-1.6-3.1-3.9 0-.4.7-1.1 2.1-1.9l4.1-3.6c.9-1.2 1.5-3.1 1.6-5.7l-.1-.6c-.2-1.8-1.5-3.3-4-4.5-1.5-1-4.1-1.5-8-1.6-3.2.3-7.3 1.4-12.5 3.4-1.4 1-3 2-4.8 3v.3c.1 0 .3-.1.5-.2.2 0 .3.1.3.3l.3-.2h.2v.1c0 .1-1.1 1-3.4 2.6l.2.3h-.2l-.3-.1c0 .1-.1.2-.5.2v.2l.4.4c-.1 0-.3 0-.5-.1-.7.1-1.4.6-2.1 1.6l.2.3c.6-.6 1-.8 1.1-.9v.5c-.1 0-.3.1-.5.2l.4.6c.7-.8 1.6-1.5 2.4-2.1.4.1.7.3.7.4h.3c2.4-1.8 4.8-3.1 7.2-3.9v.3c-.4.7-.7 1-.9 1 0 .2.1.4.2.6 0 .4-1 3.1-3.2 8.1-5 11.7-9.1 20.3-12.5 25.9 0 .1.1.3.2.4.8-.2 1.4-.4 1.6-.6h.2v.3h.3l.3-.2c0 .1.1.1.3.1v.3c0 .3-.1.8-.5 1.4-.3.4-.7 1.2-1.1 2.4v.1h.3c1.3-1.5 2.4-3 3.1-4.4 3.9-1.2 6.9-2.3 9-3.4 2.1-.2 3.7-.7 4.8-1.6v-.2l-.8.2h-.2v-.2c1.5-.2 2.6-.6 3.2-1 3-2.3 5.2-3.9 6.8-4.9 3.3-2 5.3-4.3 6.3-6.4zm-27.2-14.2h-.2v-.3l.6-.1v.1c-.1.1-.2.2-.4.3zm-3.2 31.6c-.4-.2-.7-.2-1-.2v-.5c0-.2.1-.3.3-.3.2 0 .3.1.3.4.5-.7.8-1 .9-1l.3.1c0 1-.3 1.5-.8 1.5zm33.8-35.3c-.2 0-.5-.5-.9-1.5v-.3c.3 0 .6.5.9 1.5v.3zm-.5-3.5-.1.3-4.6-1.9c3.1.1 4.6.6 4.7 1.6zm-19.3 16.6-.6.1v-.3l.6-.1v.3zm-.6-10h.2v.5c-.1 0-.3.2-.6.7v-.3c.3-.4.5-.7.4-.9zm-1.3 3.3.1.6h-.2l-.1-.6h.2zm-.7 1.1h.3c0 .5-.2.8-.4.8h-.2c.2-.4.3-.6.3-.8zm-.6 1.6h.2v.1l-.3.5h-.3v-.1c.3 0 .5-.2.4-.5zm-.5 1.4-.1.8h-.2l-.1-.8h.4zm-5.3 15c-.2 1-.4 1.6-.7 1.6v-.1c0-.6.2-1.1.7-1.5zm-.9 2.1v.1c0 .2-.1.3-.3.3v-.1c0-.2.1-.3.3-.3zm-.3 4.3h.5v.2c-.1 0-.3.1-.5.2h-.3c0-.2.1-.3.3-.4zm13.9-4.3c-2.7 1.3-4.3 2.3-4.8 2.7-3 1-4.4 1.7-4.4 1.9-2.6 1-4.4 1.8-5.2 2.3-.2 0-.5-.1-.9-.2 0-.5.2-1 .7-1.3.5 0 .9 0 1.3.2.5-.3 1.3-.5 2.5-.8v-.3l-1 .1c.1-.2 1.1-.6 2.8-1.3h.5v.1c-.8.1-1.3.3-1.4.8 0 .2.1.3.3.3.6-.4.9-.6.9-.7 1.2-.2 4.5-1.9 9.9-5.2v.3c.2 0-.3.4-1.2 1.1zm-8.3 2.7c.8-.1 1.5-.4 2-.9.2 0 .3.1.4.3-.4 0-1.1.4-2.2 1h-.2v-.4zm13.3-10.2-4.1 3.3c-3.1 2-4.7 3-5 3-4.9 2.7-7.9 4.1-9.1 4.2h-.2c.1-.6 2.3-5 6.5-13.4 1.9-.2 4.8-1 8.8-2.6l1-.1c2-.2 3.5.2 4.5 1.2l.1.6c-.7 2.2-1.6 3.4-2.5 3.8zm-8-4.6.7-.1v.1l-.7.1v-.1zm9.3-1.5h.5c.4.2.7.4.7.6v.1c-.4 0-.8-.3-1.2-.7zm1.3-7.6c-.4.5-1.6 1.4-3.5 2.6-.6.1-3 1-7.1 2.8-.2-.1-.4-.1-.7-.1v-.3c0-.6.2-1.3.8-2.2.3-1.7.7-2.7 1-2.9l3.4-7.7c0-.5.7-.8 2.2-1.1h.5v.4c1.5-.2 2.4-.4 2.7-.4 2.7-.2 4.1.3 4.2 1.6h.3l-.1-.8h.3c.8.4 1.2 1 1.3 1.6 0 .4-.2 1-.7 1.6-.2 0-.3-.1-.3-.4h-.3l-.1.9c-1.4 2.1-2.4 3.1-3 3.2-.4.8-.7 1.2-.9 1.2zm2.1 5.4c-.3-.2-.5-.3-.7-.3v-.5h.3l.7.4c0 .3-.1.4-.3.4zm2.2 2.6c.3.1.5.3.5.4h-.2l-.2.2-.1-.6zm.2 1.3v-.1l.4-.1v.1l-.4.1zm1 1.1v.2c-.1-.1-.1-.2 0-.2z" style="fill:#050507" transform="translate(4.5 8)" id="Shadow"/><path id="Babel-B" d="M-2394.4-304.6c.2 0 .8-2.2.8-2.1l-.2-1.2c-.1-.4-1.1-1.6-3.1-3.9 0-.4.7-1.1 2.1-1.9l4.1-3.6c.9-1.2 1.5-3.1 1.6-5.7l-.1-.6c-.2-1.8-1.5-3.3-4-4.5-1.5-1-4.1-1.5-8-1.6-3.2.3-7.3 1.4-12.5 3.4-1.4 1-3 2-4.8 3v.3c.1 0 .3-.1.5-.2.2 0 .3.1.3.3l.3-.2h.2v.1c0 .1-1.1 1-3.4 2.6l.2.3h-.2l-.3-.1c0 .1-.1.2-.5.2v.2l.4.4c-.1 0-.3 0-.5-.1-.7.1-1.4.6-2.1 1.6l.2.3c.6-.6 1-.8 1.1-.9v.5c-.1 0-.3.1-.5.2l.4.6c.7-.8 1.6-1.5 2.4-2.1.4.1.7.3.7.4h.3c2.4-1.8 4.8-3.1 7.2-3.9v.3c-.4.7-.7 1-.9 1 0 .2.1.4.2.6 0 .4-1 3.1-3.2 8.1-5 11.7-9.1 20.3-12.5 25.9 0 .1.1.3.2.4.8-.2 1.4-.4 1.6-.6h.2v.3h.3l.3-.2c0 .1.1.1.3.1v.3c0 .3-.1.8-.5 1.4-.3.4-.7 1.2-1.1 2.4v.1h.3c1.3-1.5 2.4-3 3.1-4.4 3.9-1.2 6.9-2.3 9-3.4 2.1-.2 3.7-.7 4.8-1.6v-.2l-.8.2h-.2v-.2c1.5-.2 2.6-.6 3.2-1 3-2.3 5.2-3.9 6.8-4.9 3.4-2 5.4-4.2 6.3-6.4zm-27.1-14.1h-.2v-.3l.6-.1v.1c-.1.1-.2.1-.4.3zm-3.2 31.6c-.4-.2-.7-.2-1-.2v-.5c0-.2.1-.3.3-.3.2 0 .3.1.3.4.5-.7.8-1 .9-1l.3.1c-.1.9-.3 1.4-.8 1.5zm33.7-35.3c-.2 0-.5-.5-.9-1.5v-.3c.3 0 .6.5.9 1.5v.3zm-.4-3.5-.1.3-4.6-1.9c3 .1 4.6.6 4.7 1.6zm-19.4 16.6-.6.1v-.3l.6-.1v.3zm-.5-10h.2v.5c-.1 0-.3.2-.6.7v-.3c.3-.5.4-.7.4-.9zm-1.3 3.2.1.6h-.2l-.1-.6h.2zm-.8 1.1h.3c0 .5-.2.8-.4.8h-.2c.3-.3.4-.6.3-.8zm-.5 1.6h.2v.1l-.3.5h-.3v-.1c.3 0 .4-.2.4-.5zm-.5 1.5-.1.8h-.2l-.1-.8h.4zm-5.3 14.9c-.2 1-.4 1.6-.7 1.6v-.1c0-.5.2-1 .7-1.5zm-.9 2.1v.1c0 .2-.1.3-.3.3v-.1c0-.1.1-.2.3-.3zm-.3 4.3h.5v.2c-.1 0-.3.1-.5.2h-.3c0-.2.1-.3.3-.4zm13.9-4.2c-2.7 1.3-4.3 2.3-4.8 2.7-3 1-4.4 1.7-4.4 1.9-2.6 1-4.4 1.8-5.2 2.3-.2 0-.5-.1-.9-.2 0-.5.2-1 .7-1.3.5 0 .9 0 1.3.2.5-.3 1.3-.5 2.5-.8v-.3l-1 .1c.1-.2 1.1-.6 2.8-1.3h.5v.1c-.8.1-1.3.3-1.4.8 0 .2.1.3.3.3.6-.4.9-.6.9-.7 1.2-.2 4.5-1.9 9.9-5.2v.3c.1 0-.3.4-1.2 1.1zm-8.3 2.7c.8-.1 1.5-.4 2-.9.2 0 .3.1.4.3-.4 0-1.1.4-2.2 1h-.2v-.4zm13.3-10.3-4.1 3.3c-3.1 2-4.7 3-5 3-4.9 2.7-7.9 4.1-9.1 4.2h-.2c.1-.6 2.3-5 6.5-13.4 1.9-.2 4.8-1 8.8-2.6l1-.1c2-.2 3.5.2 4.5 1.2l.1.6c-.8 2.2-1.6 3.5-2.5 3.8zm-8.1-4.5.7-.1v.1l-.7.1v-.1zm9.4-1.6h.5c.4.2.7.4.7.6v.1c-.4 0-.8-.2-1.2-.7zm1.3-7.5c-.4.5-1.6 1.4-3.5 2.6-.6.1-3 1-7.1 2.8-.2-.1-.4-.1-.7-.1v-.3c0-.6.2-1.3.8-2.2.3-1.7.7-2.7 1-2.9l3.4-7.7c0-.5.7-.8 2.2-1.1h.5v.4c1.5-.2 2.4-.4 2.7-.4 2.7-.2 4.1.3 4.2 1.6h.3l-.1-.8h.3c.8.4 1.2 1 1.3 1.6 0 .4-.2 1-.7 1.6-.2 0-.3-.1-.3-.4h-.3l-.1.9c-1.4 2.1-2.4 3.1-3 3.2-.4.8-.8 1.2-.9 1.2zm2.1 5.4c-.3-.2-.5-.3-.7-.3v-.5h.3l.7.4c0 .2-.1.4-.3.4zm2.2 2.6c.3.1.5.3.5.4h-.2l-.2.2-.1-.6zm.2 1.2v-.1l.4-.1v.1l-.4.1zm.9 1.1v.2-.2z" style="fill:#f9dc3e"/></g></svg>