<svg version="1.1" id="Layer_1" xmlns="http://www.w3.org/2000/svg" x="0" y="0" viewBox="0 0 48 48" style="enable-background:new 0 0 48 48" xml:space="preserve"><style>.st1{fill:#0288d1}</style><path d="M41.5 19.6c.4-1.9-.1-4.1-2.7-6.5-4.3 3.9-3 7.9-1.6 9.8 0 0-.2 1.1-4.4 1.1H0s-2 17.5 17.5 17.5c17 0 21.8-13.1 22.7-16.4.4-.1.8-.1 1.3-.1 2.3 0 5.4-1.3 6.5-6-3.1-1-5.1-.5-6.5.6z" style="fill:#03a9f4"/><path class="st1" d="M.2 28.3c.8 5.2 4.1 13.1 17.3 13.1 13.3 0 19.1-8 21.5-13.1H.2z"/><path d="M19.4 41.3c-1-.4-5.5-1.2-6.3-7.6-4.6 2-8.7 1.5-10.4 1.1 2.4 3.5 6.7 6.5 14.8 6.5.6.1 1.3.1 1.9 0z" style="fill:#81d4fa"/><path d="M17.5 30.5c-1.2 0-2.2 1-2.2 2.2 0 1.2 1 2.2 2.2 2.2s2.2-1 2.2-2.2c-.1-1.2-1-2.2-2.2-2.2z" style="fill:#fff"/><path d="M14.1 34.4c.2.6 0 1.3-.6 1.4C9.9 36.9 6.8 37 4.4 37c-.7-.7-1.3-1.4-1.8-2.1 2.8 0 7.3-.1 10-1.1.6-.1 1.2.1 1.5.6zM0 27.2s2 .1 3.3-1.1c2 1.8 6.5 1.2 7.6 0 1.2 1.8 7.6 1.5 8.7 0 1.4 1.6 7.2 1.9 8.7 0 .5 1.6 7.4 2 8.7 0 1.2 1.2 5.5 2.1 8 0 .6 1.3 2.9 1.1 2.9 1.1v1.1H0m16.4 4.4c0 .6.5 1.1 1.1 1.1s1.1-.5 1.1-1.1c0-.6-.5-1.1-1.1-1.1s-1.1.5-1.1 1.1z" style="fill:#37474f"/><path d="M9.8 24H4.4v-5.5h5.5V24zm10.9-5.5h-5.5V24h5.5v-5.5zm10.9 0h-5.5V24h5.5v-5.5zM15.3 13H9.8v5.5h5.5V13zm10.9 0h-5.5v5.5h5.5V13z" style="fill:#01579b"/><path class="st1" d="M15.3 24H9.8v-5.5h5.5V24zm10.9-5.5h-5.5V24h5.5v-5.5zm0-10.9h-5.5V13h5.5V7.6zM20.7 13h-5.5v5.5h5.5V13z"/></svg>